<svg xmlns="http://www.w3.org/2000/svg" width="609" height="131"><defs><linearGradient id="grd2" gradientUnits="userSpaceOnUse" x1="364.954" y1="-5.252" x2="364.954" y2="-294.032"><stop offset="0" stop-color="#0cf"/><stop offset="1" stop-color="#fff6d5" stop-opacity="0"/></linearGradient><linearGradient id="grd3" gradientUnits="userSpaceOnUse" x1="305.104" y1="-222.533" x2="305.104" y2="18.409"><stop offset="0" stop-color="#2ad4ff"/><stop offset="1" stop-color="#ffd42a"/></linearGradient><linearGradient id="grd4" gradientUnits="userSpaceOnUse" x1="-35.036" y1="93.916" x2="645.27" y2="93.916"><stop offset="0" stop-color="#2b1100"/><stop offset=".5" stop-color="#502d16"/><stop offset="1" stop-color="#2b1100"/></linearGradient><linearGradient id="grd5" gradientUnits="userSpaceOnUse" x1="495.017" y1="60.71" x2="495.017" y2="139.394"><stop offset="0" stop-color="#784421"/><stop offset="1" stop-color="#d38d5f"/></linearGradient><linearGradient id="grd6" gradientUnits="userSpaceOnUse" x1="187.761" y1="45.936" x2="187.761" y2="126.201"><stop offset="0" stop-color="#784421"/><stop offset="1" stop-color="#28170b"/></linearGradient><linearGradient id="grd7" gradientUnits="userSpaceOnUse" x1="2.894" y1="35.799" x2="2.894" y2="130.044"><stop offset="0" stop-color="#784421"/><stop offset="1" stop-color="#c83737"/></linearGradient><linearGradient id="grd8" gradientUnits="userSpaceOnUse" x1="27.037" y1="119.141" x2="25.479" y2="21.015"><stop offset="0" stop-color="#784421"/><stop offset="1" stop-color="#784421" stop-opacity="0"/></linearGradient><linearGradient id="grd9" gradientUnits="userSpaceOnUse" x1="49.285" y1="45.107" x2="49.285" y2="136.394"><stop offset="0" stop-color="#784421"/><stop offset="1" stop-color="#c87137"/></linearGradient><linearGradient id="grd10" gradientUnits="userSpaceOnUse" x1="98.685" y1="60.71" x2="98.685" y2="139.394"><stop offset="0" stop-color="#784421"/><stop offset="1" stop-color="#d38d5f"/></linearGradient><linearGradient id="grd11" gradientUnits="userSpaceOnUse" x1="116.597" y1="141.034" x2="116.597" y2="53.711"><stop offset="0" stop-color="#784421"/><stop offset="1" stop-color="#520"/></linearGradient><linearGradient id="grd12" gradientUnits="userSpaceOnUse" x1="141.518" y1="46.714" x2="141.518" y2="120.069"><stop offset="0" stop-color="#520"/><stop offset="1" stop-color="#c83737"/></linearGradient><linearGradient id="grd13" gradientUnits="userSpaceOnUse" x1="166.439" y1="133.173" x2="166.439" y2="41.263"><stop offset="0" stop-color="#784421"/><stop offset="1" stop-color="#520"/></linearGradient><linearGradient id="grd14" gradientUnits="userSpaceOnUse" x1="212.387" y1="120.699" x2="211.608" y2="31.139"><stop offset="0" stop-color="#784421"/><stop offset="1" stop-color="#784421" stop-opacity="0"/></linearGradient><linearGradient id="grd15" gradientUnits="userSpaceOnUse" x1="234.972" y1="14.184" x2="234.972" y2="111.544"><stop offset="0" stop-color="#784421"/><stop offset="1" stop-color="#803300"/></linearGradient><linearGradient id="grd16" gradientUnits="userSpaceOnUse" x1="258.335" y1="103.596" x2="258.335" y2="63.848"><stop offset="0" stop-color="#784421"/><stop offset="1" stop-color="#803300"/></linearGradient><linearGradient id="grd17" gradientUnits="userSpaceOnUse" x1="288.708" y1="56.202" x2="288.708" y2="142.734"><stop offset="0" stop-color="#803300"/><stop offset="1" stop-color="#c83737"/></linearGradient><linearGradient id="grd18" gradientUnits="userSpaceOnUse" x1="327.647" y1="45.936" x2="327.647" y2="126.201"><stop offset="0" stop-color="#784421"/><stop offset="1" stop-color="#28170b"/></linearGradient><linearGradient id="grd19" gradientUnits="userSpaceOnUse" x1="351.011" y1="45.157" x2="351.011" y2="130.048"><stop offset="0" stop-color="#784421"/><stop offset="1" stop-color="#28170b"/></linearGradient><linearGradient id="grd20" gradientUnits="userSpaceOnUse" x1="376.711" y1="119.141" x2="374.374" y2="28.802"><stop offset="0" stop-color="#784421"/><stop offset="1" stop-color="#784421" stop-opacity="0"/></linearGradient><linearGradient id="grd21" gradientUnits="userSpaceOnUse" x1="472.591" y1="38.927" x2="472.591" y2="128.52"><stop offset="0" stop-color="#520"/><stop offset="1" stop-color="#c83737"/></linearGradient><linearGradient id="grd22" gradientUnits="userSpaceOnUse" x1="421.101" y1="49.051" x2="421.101" y2="131.635"><stop offset="0" stop-color="#784421"/><stop offset="1" stop-color="#d45500"/></linearGradient><linearGradient id="grd23" gradientUnits="userSpaceOnUse" x1="472.591" y1="38.927" x2="472.591" y2="128.52"><stop offset="0" stop-color="#520"/><stop offset="1" stop-color="#c83737"/></linearGradient><linearGradient id="grd24" gradientUnits="userSpaceOnUse" x1="472.591" y1="38.927" x2="472.591" y2="128.52"><stop offset="0" stop-color="#520"/><stop offset="1" stop-color="#c83737"/></linearGradient><linearGradient id="grd25" gradientUnits="userSpaceOnUse" x1="421.101" y1="49.051" x2="421.101" y2="131.635"><stop offset="0" stop-color="#784421"/><stop offset="1" stop-color="#d45500"/></linearGradient><linearGradient id="grd26" gradientUnits="userSpaceOnUse" x1="586.203" y1="119.141" x2="583.867" y2="18.678"><stop offset="0" stop-color="#784421"/><stop offset="1" stop-color="#784421" stop-opacity="0"/></linearGradient><linearGradient id="grd27" gradientUnits="userSpaceOnUse" x1="421.101" y1="49.051" x2="421.101" y2="131.635"><stop offset="0" stop-color="#784421"/><stop offset="1" stop-color="#d45500"/></linearGradient><linearGradient id="grd28" gradientUnits="userSpaceOnUse" x1="641.681" y1="47.367" x2="-33.386" y2="47.367"><stop offset="0" stop-color="#2b1100"/><stop offset=".5" stop-color="#784421"/><stop offset="1" stop-color="#2b1100"/></linearGradient><linearGradient id="grd29" gradientUnits="userSpaceOnUse" x1="779.283" y1="39.071" x2="-167.042" y2="39.071"><stop offset="0" stop-color="#2b1100"/><stop offset=".5" stop-color="#9b5800"/><stop offset="1" stop-color="#2b1100"/></linearGradient><linearGradient id="grd30" gradientUnits="userSpaceOnUse" x1="602.788" y1="-177.289" x2="513.869" y2="-177.289"><stop offset="0" stop-color="#500"/><stop offset="1" stop-color="#d40000"/></linearGradient><linearGradient id="grd31" gradientUnits="userSpaceOnUse" x1="506.109" y1="-233.369" x2="506.109" y2="-63.431"><stop offset="0" stop-color="#37abc8"/><stop offset="1" stop-color="#ffe680"/></linearGradient><linearGradient id="grd32" gradientUnits="userSpaceOnUse" x1="517.685" y1="-1.299" x2="517.685" y2="-205.629"><stop offset="0" stop-color="#ed9647"/><stop offset=".51" stop-color="#ffed00"/><stop offset="1" stop-color="#ed9647"/></linearGradient><linearGradient id="grd33" gradientUnits="userSpaceOnUse" x1="604.682" y1="-307.411" x2="433.486" y2="-307.411"><stop offset="0" stop-color="maroon"/><stop offset="1" stop-color="red"/></linearGradient><linearGradient id="grd34" gradientUnits="userSpaceOnUse" x1="556.2" y1="-469.667" x2="624.086" y2="-283.193"><stop offset="0" stop-color="#37abc8"/><stop offset="1" stop-color="#ffe680"/></linearGradient><linearGradient id="grd35" gradientUnits="userSpaceOnUse" x1="514.948" y1="-237.757" x2="408.605" y2="-306.918"><stop offset="0" stop-color="#ed9647"/><stop offset=".51" stop-color="#ffed00"/><stop offset="1" stop-color="#ed9647"/></linearGradient><linearGradient id="grd36" gradientUnits="userSpaceOnUse" x1="482.888" y1="-214.385" x2="589.432" y2="-240.048"><stop offset="0" stop-color="#ffeb02"/><stop offset="1" stop-color="#ed9845"/></linearGradient><linearGradient id="grd37" gradientUnits="userSpaceOnUse" x1="499.637" y1="-201.494" x2="575.514" y2="-222.168"><stop offset="0" stop-color="#fff6d5"/><stop offset="1" stop-color="#f4eed7" stop-opacity="0"/></linearGradient><linearGradient id="grd38" gradientUnits="userSpaceOnUse" x1="7.212" y1="-177.289" x2="96.131" y2="-177.289"><stop offset="0" stop-color="#500"/><stop offset="1" stop-color="#d40000"/></linearGradient><linearGradient id="grd39" gradientUnits="userSpaceOnUse" x1="103.891" y1="-233.369" x2="103.891" y2="-63.431"><stop offset="0" stop-color="#37abc8"/><stop offset="1" stop-color="#ffe680"/></linearGradient><linearGradient id="grd40" gradientUnits="userSpaceOnUse" x1="92.315" y1="-1.299" x2="92.315" y2="-205.629"><stop offset="0" stop-color="#ed9647"/><stop offset=".51" stop-color="#ffed00"/><stop offset="1" stop-color="#ed9647"/></linearGradient><linearGradient id="grd41" gradientUnits="userSpaceOnUse" x1="5.318" y1="-307.411" x2="176.514" y2="-307.411"><stop offset="0" stop-color="maroon"/><stop offset="1" stop-color="red"/></linearGradient><linearGradient id="grd42" gradientUnits="userSpaceOnUse" x1="57.679" y1="-469.667" x2="-14.086" y2="-283.193"><stop offset="0" stop-color="#37abc8"/><stop offset="1" stop-color="#ffe680"/></linearGradient><linearGradient id="grd43" gradientUnits="userSpaceOnUse" x1="95.052" y1="-237.757" x2="201.394" y2="-306.918"><stop offset="0" stop-color="#ed9647"/><stop offset=".51" stop-color="#ffed00"/><stop offset="1" stop-color="#ed9647"/></linearGradient><linearGradient id="grd44" gradientUnits="userSpaceOnUse" x1="127.112" y1="-214.385" x2="20.568" y2="-240.048"><stop offset="0" stop-color="#ffeb02"/><stop offset="1" stop-color="#ed9845"/></linearGradient><linearGradient id="grd45" gradientUnits="userSpaceOnUse" x1="110.363" y1="-201.494" x2="34.486" y2="-222.168"><stop offset="0" stop-color="#fff6d5"/><stop offset="1" stop-color="#f4eed7" stop-opacity="0"/></linearGradient><linearGradient id="grd46" gradientUnits="userSpaceOnUse" x1="489.27" y1="-334.544" x2="122.33" y2="-334.544"><stop offset="0" stop-color="#cf0000"/><stop offset=".5" stop-color="#ed0000"/><stop offset="1" stop-color="#cf0000"/></linearGradient><linearGradient id="grd47" gradientUnits="userSpaceOnUse" x1="305.882" y1="-441.39" x2="305.882" y2="-298.635"><stop offset="0" stop-color="#37abc8"/><stop offset="1" stop-color="#ffe680"/></linearGradient><linearGradient id="grd48" gradientUnits="userSpaceOnUse" x1="49.494" y1="-337.001" x2="561.149" y2="-337.001"><stop offset="0" stop-color="#ed9647"/><stop offset=".5" stop-color="#ffed00"/><stop offset="1" stop-color="#ed9647"/></linearGradient><linearGradient id="grd49" gradientUnits="userSpaceOnUse" x1="290.964" y1="-415.456" x2="290.964" y2="-333.558"><stop offset="0"/><stop offset="1" stop-opacity="0"/></linearGradient><linearGradient id="grd50" gradientUnits="userSpaceOnUse" x1="710.321" y1="-440.773" x2="-103.575" y2="-440.773"><stop offset="0" stop-color="#2b1100"/><stop offset=".5" stop-color="#824421"/><stop offset="1" stop-color="#2b1100"/></linearGradient><linearGradient id="grd51" gradientUnits="userSpaceOnUse" x1="302.757" y1="-409.83" x2="302.757" y2="-574.001"><stop offset="0" stop-color="#803300"/><stop offset="1" stop-color="#c83737"/></linearGradient><linearGradient id="grd52" gradientUnits="userSpaceOnUse" x1="237.247" y1="-504.896" x2="237.247" y2="-289.908"><stop offset="0" stop-color="#784421"/><stop offset="1" stop-color="#d38d5f"/></linearGradient><linearGradient id="grd53" gradientUnits="userSpaceOnUse" x1="360.871" y1="-493.22" x2="360.871" y2="-286.946"><stop offset="0" stop-color="#784421"/><stop offset="1" stop-color="#d45500"/></linearGradient><linearGradient id="grd54" gradientUnits="userSpaceOnUse" x1="198.152" y1="-488.811" x2="198.152" y2="-382.228"><stop offset="0" stop-color="#784421"/><stop offset="1" stop-color="#28170b"/></linearGradient><linearGradient id="grd55" gradientUnits="userSpaceOnUse" x1="302.757" y1="-409.83" x2="302.757" y2="-574.001"><stop offset="0" stop-color="#803300"/><stop offset="1" stop-color="#c83737"/></linearGradient><linearGradient id="grd56" gradientUnits="userSpaceOnUse" x1="464.42" y1="-488.811" x2="464.42" y2="-325.581"><stop offset="0" stop-color="#784421"/><stop offset="1" stop-color="#28170b"/></linearGradient><linearGradient id="grd57" gradientUnits="userSpaceOnUse" x1="302.757" y1="-409.83" x2="302.757" y2="-574.001"><stop offset="0" stop-color="#803300"/><stop offset="1" stop-color="#c83737"/></linearGradient><linearGradient id="grd58" gradientUnits="userSpaceOnUse" x1="360.871" y1="-489.612" x2="360.871" y2="-333.428"><stop offset="0" stop-color="#784421"/><stop offset="1" stop-color="#d45500"/></linearGradient><linearGradient id="grd59" gradientUnits="userSpaceOnUse" x1="190.756" y1="-526.31" x2="190.756" y2="-220.635"><stop offset="0" stop-color="#784421"/><stop offset="1" stop-color="#d38d5f"/></linearGradient><linearGradient id="grd60" gradientUnits="userSpaceOnUse" x1="198.152" y1="-488.811" x2="198.152" y2="-314.382"><stop offset="0" stop-color="#784421"/><stop offset="1" stop-color="#28170b"/></linearGradient><linearGradient id="grd61" gradientUnits="userSpaceOnUse" x1="302.757" y1="-409.83" x2="302.757" y2="-574.001"><stop offset="0" stop-color="#803300"/><stop offset="1" stop-color="#c83737"/></linearGradient><linearGradient id="grd62" gradientUnits="userSpaceOnUse" x1="720.377" y1="-390.783" x2="-110.034" y2="-390.783"><stop offset="0" stop-color="#2b1100"/><stop offset=".5" stop-color="#9d5900"/><stop offset="1" stop-color="#2b1100"/></linearGradient><linearGradient id="grd63" gradientUnits="userSpaceOnUse" x1="-168.279" y1="-491.442" x2="778.279" y2="-481.925"><stop offset="0"/><stop offset=".5" stop-color="#d38d5f"/><stop offset="1"/></linearGradient><filter x="-50%" y="-50%" width="200%" height="200%" id="flt1"><feGaussianBlur stdDeviation="3.136"/></filter><filter x="-50%" y="-50%" width="200%" height="200%" id="flt2"><feGaussianBlur stdDeviation="7.23"/></filter><filter x="-50%" y="-50%" width="200%" height="200%" id="flt3"><feGaussianBlur stdDeviation="3.863"/></filter><radialGradient id="grd1" gradientUnits="userSpaceOnUse" cx="305" cy="-122.369" r="337.483"><stop offset="0" stop-color="#93a7ac"/><stop offset="1" stop-color="#00112b"/></radialGradient></defs><style>.shp9{opacity:.502;fill:#784421}.shp65{opacity:.549;fill:#6e3d1f}</style><g id="layer1"><g id="g6231"><path id="rect4811" d="M26.19-365.39h557.62V-.68H26.19v-364.71z" fill="url(#grd1)"/><path id="path5985" fill-rule="evenodd" d="M189.22-.68l-19.96-338.89h28.96l20.85 320.38 30.15-320.38h33.81l-25 338.89h-68.81zm-62.13-338.89L175.54-.68h-18.82L86.16-339.57h40.93zm194.26 0L334.62-.68h-45.08l9.9-338.89h21.91zm66.36 0L427.03-.68c53.76 2.86-42.05 1.81-63.08 0l-22.9-338.89h46.66zm114.78 0L524.93-.68h-25.9l-18.8-338.89h22.26zm-30.65 0L462.4-.68h-22.34L437-339.57h34.84z" opacity=".231" fill="url(#grd2)"/><path id="rect5344" d="M305-216.72c-123.92 0-230.62 68.05-278.81 165.93V-.68h557.62v-50.11C535.62-148.67 428.92-216.72 305-216.72z" opacity=".263" fill="url(#grd3)"/><g id="g6168"><g id="g5870"><g id="g5245"><path id="rect4969" d="M-4.27 27.41h618.54v104.23H-4.27V27.41z" fill="url(#grd4)"/><path id="path5209" d="M482.49 27.4v104.24h18.05V27.4h-18.05z" opacity=".502" fill="url(#grd5)"/><path id="path5199" d="M179.41 27.4v104.24h18.06V27.4h-18.06z" opacity=".502" fill="url(#grd6)"/><path id="path5095" d="M-4.26 27.4v104.24h15.24V27.4H-4.26z" opacity=".502" fill="url(#grd7)"/><path id="path5093" d="M16.22 27.4v104.24h18.06V27.4H16.22z" opacity=".502" fill="url(#grd8)"/><path id="path5091" d="M39.53 27.4v104.24h18.08V27.4H39.53z" opacity=".502" fill="url(#grd9)"/><path id="path5089" class="shp9" d="M62.85 27.4v104.24h18.06V27.4H62.85z"/><path id="path5087" d="M86.16 27.4v104.24h18.05V27.4H86.16z" opacity=".502" fill="url(#grd10)"/><path id="path5085" d="M109.48 27.4v104.24h18.06V27.4h-18.06z" opacity=".502" fill="url(#grd11)"/><path id="path5083" d="M132.78 27.4v104.24h18.06V27.4h-18.06z" opacity=".502" fill="url(#grd12)"/><path id="path5081" d="M156.09 27.4v104.24h18.08V27.4h-18.08z" opacity=".502" fill="url(#grd13)"/><path id="path5077" d="M202.72 27.4v104.24h18.07V27.4h-18.07z" opacity=".502" fill="url(#grd14)"/><path id="path5075" d="M226.04 131.64V27.4h18.06v104.24h-18.06z" opacity=".502" fill="url(#grd15)"/><path id="path5073" d="M249.34 27.4v104.24h18.08V27.4h-18.08z" opacity=".502" fill="url(#grd16)"/><path id="path5071" d="M272.67 131.64V27.4h18.05v104.24h-18.05z" opacity=".502" fill="url(#grd17)"/><path id="path5069" class="shp9" d="M295.97 27.4v104.24h18.06V27.4h-18.06z"/><path id="path5067" d="M319.3 27.4v104.24h18.05V27.4H319.3z" opacity=".502" fill="url(#grd18)"/><path id="path5065" d="M342.6 27.4v104.24h18.06V27.4H342.6z" opacity=".502" fill="url(#grd19)"/><path id="path5063" d="M365.9 27.4v104.24h18.08V27.4H365.9z" opacity=".502" fill="url(#grd20)"/><path id="path5061" d="M389.23 27.4v104.24h18.05V27.4h-18.05z" opacity=".502" fill="url(#grd21)"/><path id="path5059" d="M412.53 27.4v104.24h18.08V27.4h-18.08z" opacity=".502" fill="url(#grd22)"/><path id="path5057" d="M435.86 27.4v104.24h18.05V27.4h-18.05z" opacity=".502" fill="url(#grd23)"/><path id="path5055" class="shp9" d="M459.16 27.4v104.24h18.08V27.4h-18.08z"/><path id="path5051" d="M505.79 27.4v104.24h18.05V27.4h-18.05z" opacity=".502" fill="url(#grd24)"/><path id="path5049" class="shp9" d="M529.09 27.4v104.24h18.08V27.4h-18.08z"/><path id="path5047" d="M552.42 27.4v104.24h18.05V27.4h-18.05z" opacity=".502" fill="url(#grd25)"/><path id="path5045" d="M575.72 27.4v104.24h18.08V27.4h-18.08z" opacity=".502" fill="url(#grd26)"/><path id="path5005" d="M599.05 27.4v104.24h15.21V27.4h-15.21z" opacity=".502" fill="url(#grd27)"/></g><path id="path5649" d="M4.67 35.24v12.99h600.66V35.24H4.67z" opacity=".318" filter="url(#flt1)" fill="#2b1100"/><g id="g4981"><path id="rect4633" d="M7.75-10.83l-27.8 30.41v17.79h650.1V19.61l-27.83-30.44H7.75z" fill="url(#grd28)"/><path id="rect4950" d="M-20.05 19.54v17.83h650.1V19.54h-650.1z" fill="url(#grd29)"/></g></g><g id="g4606"><g id="g4480"><g id="g4444"><g id="g4446"><path id="path4448" d="M590.8-.89H500c-.6-5.66-.92-11.45-.92-17.34 0-67.42-1.2-288.17 91.72-288.17V-.89z" fill="url(#grd30)"/><path id="path4450" d="M590.8-226.74V-.88h-21.32v-225.86h21.32zm-36.23 0V-.88h-22.58v-225.86h22.58zm-37.49 7.18V-.88h-17.09c-.6-5.67-.91-11.45-.91-17.34 0-39.53-.4-131.79 18-201.34z" opacity=".282" fill="url(#grd31)"/><path id="path4452" d="M590.8-306.39v4.43c-86.11 8.27-85.94 218.79-85.94 283.98 0 5.8-.64 11.51-.06 17.1h-6.73c-.6-5.67.05-11.45.05-17.34 0-67.42-.24-288.17 92.68-288.17z" fill="url(#grd32)"/></g><g id="g4454"><path id="path4456" d="M590.8-375.88v144.35c-8.32.95-16.81 1.47-25.44 1.47-98.91 0-179.67-64.62-184.47-145.82H590.8z" fill="url(#grd33)"/><path id="path4458" fill-rule="evenodd" d="M547.18-375.88l43.62 94.99v49.35c-.84.1-1.69.17-2.53.26l-66.42-144.6h25.33zm42.12 0l1.5 3.25v55.18l-26.84-58.43h25.34zm-84.2 0l66.92 145.71a224.945 224.945 0 01-25.68-.7l-66.61-145.01h25.37zm-42.13 0l65.6 142.76c-9.8-1.64-19.31-3.92-28.48-6.8l-62.44-135.96h25.32zm-42.13 0l59.01 128.42c-12.27-5.34-23.71-11.79-34.16-19.19l-50.17-109.23h25.32zm-39.47 5.63l36.13 78.7c-20.13-22.3-33.1-49.32-36.13-78.7z" opacity=".282" fill="url(#grd34)"/><path id="path4460" d="M382.51-375.88c7.97 79.53 88.39 142.04 186.44 142.04 7.39 0 14.68-.37 21.85-1.07v4.83c-8.43.96-17.04 1.49-25.78 1.49-100.2 0-182.02-65.27-186.88-147.29h4.37z" fill="url(#grd35)"/></g><path id="path4462" d="M590.8-255.23v32.87s-24.22 9.63-36.52 13.86c-14.44 4.96-43.72 13.48-43.72 13.48l-12.32-42.99s34.02-5.8 50.99-8.98c13.88-2.59 41.57-8.24 41.57-8.24z" fill="url(#grd36)" stroke="url(#grd37)" stroke-width=".8"/></g><g id="g4181"><g id="g4170"><path id="path3918" d="M19.2-.89H110c.6-5.66.92-11.45.92-17.34 0-67.42 1.2-288.17-91.72-288.17V-.89z" fill="url(#grd38)"/><path id="path4042" d="M19.2-226.74V-.88h21.32v-225.86H19.2zm36.23 0V-.88h22.58v-225.86H55.43zm37.49 7.18V-.88h17.09c.6-5.67.91-11.45.91-17.34 0-39.53.4-131.79-18-201.34z" opacity=".282" fill="url(#grd39)"/><path id="path4141" d="M19.2-306.39v4.43c86.11 8.27 85.94 218.79 85.94 283.98 0 5.8.64 11.51.06 17.1h6.73c.6-5.67-.05-11.45-.05-17.34 0-67.42.24-288.17-92.68-288.17z" fill="url(#grd40)"/></g><g id="g4102"><path id="path3912" d="M19.2-375.88v144.35c8.32.95 16.81 1.47 25.44 1.47 98.91 0 179.67-64.62 184.47-145.82H19.2z" fill="url(#grd41)"/><path id="path4051" fill-rule="evenodd" d="M88.15-375.88l-66.42 144.6c-.84-.09-1.69-.16-2.53-.26v-49.35l43.62-94.99h25.33zm-42.11 0L19.2-317.45v-55.18l1.49-3.25h25.35zm84.23 0L63.66-230.87a224.945 224.945 0 01-25.68.7l66.92-145.71h25.37zm42.08 0l-62.44 135.96c-9.17 2.88-18.68 5.16-28.48 6.8l65.6-142.76h25.32zm42.13 0l-50.17 109.23c-10.45 7.4-21.89 13.85-34.16 19.19l59.01-128.42h25.32zm-21.98 84.33l36.13-78.7c-3.03 29.38-16 56.4-36.13 78.7z" opacity=".282" fill="url(#grd42)"/><path id="path4093" d="M227.49-375.88c-7.97 79.53-88.39 142.04-186.44 142.04-7.39 0-14.68-.37-21.85-1.07v4.83c8.43.96 17.04 1.49 25.78 1.49 100.2 0 182.02-65.27 186.88-147.29h-4.37z" fill="url(#grd43)"/></g><path id="path4023" d="M19.2-255.23v32.87s24.22 9.63 36.52 13.86c14.44 4.96 43.72 13.48 43.72 13.48l12.32-42.99s-34.02-5.8-50.99-8.98c-13.88-2.59-41.57-8.24-41.57-8.24z" fill="url(#grd44)" stroke="url(#grd45)" stroke-width=".8"/></g></g><g id="g4534"><path id="path3102" d="M96.86-375.88c5.41 46.45 96.5 83.43 208.12 83.43s202.75-36.98 208.16-83.43H96.86z" fill="url(#grd46)"/><path id="rect3946" d="M104.82-375.88v20.08c5.29 7.69 12.97 14.94 22.73 21.6v-41.68h-22.73zm37.77 0v50.64c6.93 3.63 14.53 7.02 22.73 10.14v-60.78h-22.73zm37.76 0v65.99c7.22 2.27 14.82 4.35 22.73 6.22v-72.21h-22.73zm37.76 0v75.42c7.36 1.43 14.94 2.7 22.73 3.76v-79.18h-22.73zm37.76 0v80.97c7.43.76 15.01 1.35 22.73 1.76v-82.73h-22.73zm37.77 0v83.28c3.75.08 7.54.13 11.35.13 3.82 0 7.6-.05 11.37-.13v-83.28h-22.72zm37.76 0v82.73c7.72-.41 15.3-1 22.73-1.76v-80.97H331.4zm37.76 0v79.18c7.79-1.06 15.37-2.33 22.73-3.76v-75.42h-22.73zm37.76 0v72.21c7.92-1.87 15.5-3.97 22.73-6.25v-65.96h-22.73zm37.76 0v60.75c8.2-3.12 15.8-6.5 22.73-10.13v-50.62h-22.73zm37.77 0v41.65c9.74-6.65 17.45-13.89 22.73-21.57v-20.08h-22.73z" opacity=".282" fill="url(#grd47)"/><path id="path3985" d="M96.86-375.88c5.42 47.33 96.51 84.97 208.13 84.97 111.61 0 202.73-37.64 208.15-84.97h-6.6c-12.17 44.28-97.77 78.61-201.55 78.61-103.79 0-189.37-34.33-201.53-78.61h-6.6z" fill="url(#grd48)"/></g></g><path id="path5805" d="M38-386.47c-.69 1.08-1.05 2.18-1.05 3.28 0 20.46 120 37.02 268.05 37.02 148.04 0 268.05-16.56 268.05-37.02 0-1.1-.37-2.2-1.05-3.28H38z" opacity=".49" filter="url(#flt2)" fill="url(#grd49)"/></g><g id="g5838"><path id="path5365" d="M305.01-515.64c-106.27-.01-236.28 17.89-317.24 36.83l14.98 91.93h604.48l15-91.93c-80.96-18.94-210.95-36.83-317.22-36.83z" fill="url(#grd50)"/><g id="g5749"><path id="path5502" d="M284.29-492.6c-3.83.05-7.66.14-11.49.2l6.33 92.74h51.77l6.33-92.62c-17.65-.28-35.31-.39-52.94-.32z" opacity=".502" fill="url(#grd51)"/><path id="path5500" d="M265.84-492.25c-15.71.32-31.43.83-47.14 1.51l6.22 91.08h49.12l-8.2-92.59z" opacity=".502" fill="url(#grd52)"/><path id="path5498" d="M344.18-492.2l-8.19 92.54h49.11l6.25-91.08c-15.71-.66-31.44-1.16-47.17-1.46z" opacity=".502" fill="url(#grd53)"/><path id="path5496" d="M211.79-490.46c-15.71.74-31.41 1.69-47.09 2.85l5.99 87.95h49.15l-8.05-90.8z" opacity=".502" fill="url(#grd54)"/><path id="path5494" d="M398.24-490.46l-8.05 90.8h49.14l6-88.03c-15.69-1.16-31.38-2.05-47.09-2.77z" opacity=".502" fill="url(#grd55)"/><path id="path5492" d="M452.16-487.15l-7.74 87.49h49.14l5.67-83.08c-15.67-1.73-31.36-3.19-47.07-4.41z" opacity=".502" fill="url(#grd56)"/><path id="path5490" d="M157.86-487.1c-15.7 1.23-31.39 2.69-47.06 4.42l5.69 83.02h49.12l-7.75-87.44z" opacity=".502" fill="url(#grd57)"/><path id="path5488" d="M505.91-482l-7.29 82.34h49.14l5.19-75.98c-15.65-2.41-31.33-4.54-47.04-6.36z" opacity=".502" fill="url(#grd58)"/><path id="path5486" d="M104.12-481.91c-15.71 1.81-31.4 3.86-47.04 6.24l5.18 76.01h49.15l-7.29-82.25z" opacity=".502" fill="url(#grd59)"/><path id="path5484" d="M50.55-474.65c-16.54 2.61-33.05 5.52-49.5 8.84 3.7 22.05 7.39 44.1 11.08 66.15h45.05l-6.63-74.99z" opacity=".502" fill="url(#grd60)"/><path id="path5405" d="M559.48-474.65l-6.63 74.99h44.99c3.7-21.99 7.41-43.99 11.11-65.98-16.45-3.39-32.93-6.37-49.47-9.01z" opacity=".502" fill="url(#grd61)"/></g><path id="path5619" d="M14.39-407.72v19.38h581.22v-19.38H14.39z" opacity=".318" filter="url(#flt3)" fill="#2b1100"/><path id="rect5325" d="M-11.64-402.51h633.28v27.37H-11.64v-27.37z" fill="url(#grd62)"/><path id="path5601" d="M305.01-505.56c-104.56 0-231.19 16.74-315.85 35.27l.4 2.48c84.66-18.01 211.05-34.24 315.45-34.24 104.39 0 230.77 16.23 315.43 34.24l.4-2.51c-84.66-18.53-211.28-35.24-315.83-35.24z" opacity=".525" fill="url(#grd63)"/><g id="g5734"><path id="path5651" fill-rule="evenodd" d="M309.89-474.93l-2.07 14.96 4.85-14.12 8.48 5.5-8.42 11.77 10.45-9.48 4.89 9.55-12.62 5.5 13.39-2.35v11.01l-13.25-2.33 12.48 5.46-4.89 9.54-10.47-9.49 8.44 11.78-8.48 5.51-4.85-14.07 2.07 14.91h-9.78l2.07-14.91-4.85 14.07-8.48-5.51 8.44-11.78-10.47 9.49-4.89-9.54 12.54-5.46-13.31 2.33v-11.01l13.35 2.33-12.58-5.48 4.89-9.55 10.45 9.48-8.42-11.77 8.48-5.5 4.85 14.12-2.07-14.96h9.78zm-14.51 26.83c0 5.99 4.31 10.83 9.62 10.83s9.62-4.84 9.62-10.83c0-5.98-4.31-10.82-9.62-10.82s-9.62 4.84-9.62 10.82zm17.25 0c0 4.75-3.42 8.59-7.63 8.59s-7.63-3.84-7.63-8.59c0-4.74 3.42-8.58 7.63-8.58s7.63 3.84 7.63 8.58z" opacity=".549" fill="#683a1c"/><g id="g5689"><path id="path5677" fill-rule="evenodd" class="shp65" d="M249.98-471.07l-1.68 12.09 3.92-11.41 6.85 4.45-6.8 9.5 8.44-7.65 3.95 7.71-10.2 4.45 10.82-1.91v8.9l-10.7-1.88 10.08 4.41-3.95 7.71-8.46-7.67 6.82 9.52-6.85 4.45-3.92-11.37 1.68 12.05h-7.91l1.68-12.05-3.92 11.37-6.85-4.45 6.81-9.52-8.45 7.67-3.95-7.71 10.13-4.41-10.75 1.88v-8.9l10.78 1.89-10.16-4.43 3.95-7.71 8.44 7.65-6.8-9.5 6.85-4.45 3.92 11.41-1.68-12.09h7.91zm-11.73 21.68c0 4.83 3.48 8.75 7.77 8.75 4.29 0 7.77-3.92 7.77-8.75s-3.48-8.74-7.77-8.74c-4.29 0-7.77 3.91-7.77 8.74zm13.94 0c0 3.83-2.76 6.94-6.17 6.94-3.4 0-6.16-3.11-6.16-6.94 0-3.83 2.76-6.93 6.16-6.93 3.41 0 6.17 3.1 6.17 6.93z"/><path id="path5681" fill-rule="evenodd" d="M142.33-465.27l-1.67 12.09 3.91-11.41 6.85 4.45-6.8 9.5 8.44-7.65 3.96 7.71-10.2 4.45 10.81-1.9v8.89l-10.7-1.88 10.09 4.41-3.96 7.71-8.45-7.67 6.81 9.52-6.85 4.45-3.91-11.37 1.67 12.05h-7.9l1.67-12.05-3.92 11.37-6.85-4.45 6.82-9.52-8.46 7.67-3.95-7.71 10.13-4.41-10.75 1.88v-8.89l10.79 1.88-10.17-4.43 3.95-7.71 8.44 7.65-6.8-9.5 6.85-4.45 3.92 11.41-1.67-12.09h7.9zm-11.72 21.69c0 4.83 3.48 8.74 7.77 8.74 4.29 0 7.77-3.91 7.77-8.74 0-4.84-3.48-8.75-7.77-8.75-4.29 0-7.77 3.91-7.77 8.75zm13.93 0c0 3.83-2.76 6.93-6.16 6.93-3.4 0-6.16-3.1-6.16-6.93 0-3.84 2.76-6.94 6.16-6.94 3.4 0 6.16 3.1 6.16 6.94z" opacity=".549" fill="#4f2912"/><path id="path5683" fill-rule="evenodd" d="M196.73-468.49l-1.68 12.09 3.92-11.41 6.85 4.45-6.8 9.5 8.44-7.65 3.95 7.71-10.2 4.45 10.82-1.91v8.9l-10.7-1.88 10.08 4.41-3.95 7.71-8.46-7.67 6.82 9.52-6.85 4.45-3.92-11.37 1.68 12.04h-7.91l1.68-12.04-3.92 11.37-6.85-4.45 6.81-9.52-8.45 7.67-3.95-7.71 10.13-4.41-10.75 1.88v-8.9l10.78 1.89-10.16-4.43 3.95-7.71 8.44 7.65-6.8-9.5 6.85-4.45 3.92 11.41-1.68-12.09h7.91zM185-446.81c0 4.83 3.48 8.75 7.77 8.75 4.29 0 7.77-3.92 7.77-8.75s-3.48-8.75-7.77-8.75c-4.29 0-7.77 3.92-7.77 8.75zm13.94 0c0 3.83-2.76 6.94-6.17 6.94-3.4 0-6.16-3.11-6.16-6.94 0-3.83 2.76-6.94 6.16-6.94 3.41 0 6.17 3.11 6.17 6.94z" opacity=".549" fill="#7c3114"/><path id="path5685" fill-rule="evenodd" class="shp65" d="M34.68-456.89l-1.67 12.09 3.92-11.41 6.85 4.45-6.8 9.5 8.44-7.65 3.95 7.71-10.2 4.45 10.82-1.9v8.9l-10.7-1.89 10.08 4.41-3.95 7.71-8.46-7.67 6.82 9.52-6.85 4.45-3.92-11.37 1.67 12.05h-7.9l1.68-12.05-3.92 11.37-6.85-4.45 6.81-9.52-8.45 7.67-3.95-7.71 10.13-4.41-10.75 1.89v-8.9l10.78 1.88-10.16-4.43 3.95-7.71 8.44 7.65-6.8-9.5 6.85-4.45 3.92 11.41-1.68-12.09h7.9zM22.96-435.2c0 4.83 3.48 8.74 7.77 8.74 4.29 0 7.77-3.91 7.77-8.74 0-4.84-3.48-8.75-7.77-8.75-4.29 0-7.77 3.91-7.77 8.75zm13.93 0c0 3.83-2.75 6.93-6.16 6.93-3.4 0-6.16-3.1-6.16-6.93 0-3.84 2.76-6.94 6.16-6.94 3.41 0 6.16 3.1 6.16 6.94z"/><path id="path5687" fill-rule="evenodd" d="M87.93-461.4l-1.67 12.09 3.92-11.41 6.85 4.45-6.8 9.5 8.44-7.65 3.95 7.71-10.2 4.45 10.82-1.91v8.9l-10.7-1.88 10.08 4.41-3.95 7.71-8.46-7.67 6.82 9.52-6.85 4.45-3.92-11.37 1.67 12.05h-7.9l1.68-12.05-3.92 11.37-6.85-4.45 6.81-9.52-8.45 7.67-3.95-7.71 10.13-4.41-10.75 1.88v-8.9l10.78 1.89-10.16-4.43 3.95-7.71 8.44 7.65-6.8-9.5 6.85-4.45 3.92 11.41-1.68-12.09h7.9zm-11.72 21.68c0 4.83 3.48 8.75 7.77 8.75 4.29 0 7.77-3.92 7.77-8.75s-3.48-8.74-7.77-8.74c-4.29 0-7.77 3.91-7.77 8.74zm13.93 0c0 3.83-2.75 6.94-6.16 6.94-3.4 0-6.16-3.11-6.16-6.94 0-3.83 2.76-6.93 6.16-6.93 3.41 0 6.16 3.1 6.16 6.93z" opacity=".549" fill="#874e2a"/></g><g id="g5696"><path id="path5698" fill-rule="evenodd" class="shp65" d="M367.93-471.07l-1.68 12.09 3.92-11.41 6.85 4.45-6.8 9.5 8.44-7.65 3.95 7.71-10.16 4.43 10.78-1.89v8.9l-10.75-1.88 10.13 4.41-3.95 7.71-8.45-7.67 6.81 9.52-6.85 4.45-3.92-11.37 1.68 12.05h-7.91l1.68-12.05-3.92 11.37-6.85-4.45 6.82-9.52-8.46 7.67-3.95-7.71 10.08-4.41-10.7 1.88v-8.9l10.82 1.91-10.2-4.45 3.95-7.71 8.44 7.65-6.8-9.5 6.85-4.45 3.92 11.41-1.68-12.09h7.91zm-3.95 12.94c-4.29 0-7.77 3.91-7.77 8.74s3.48 8.75 7.77 8.75c4.29 0 7.77-3.92 7.77-8.75s-3.48-8.74-7.77-8.74zm0 1.81c3.4 0 6.16 3.1 6.16 6.93 0 3.83-2.76 6.94-6.16 6.94-3.41 0-6.17-3.11-6.17-6.94 0-3.83 2.76-6.93 6.17-6.93z"/><path id="path5700" fill-rule="evenodd" d="M475.57-465.27l-1.67 12.09 3.92-11.41 6.85 4.45-6.8 9.5 8.44-7.65 3.95 7.71-10.17 4.43 10.79-1.88v8.89l-10.75-1.88 10.13 4.41-3.95 7.71-8.46-7.67 6.82 9.52-6.85 4.45-3.92-11.37 1.67 12.05h-7.9l1.67-12.05-3.91 11.37-6.85-4.45 6.81-9.52-8.45 7.67-3.96-7.71 10.08-4.41-10.69 1.88v-8.89l10.81 1.9-10.2-4.45 3.96-7.71 8.44 7.65-6.8-9.5 6.85-4.45 3.91 11.41-1.67-12.09h7.9zm-3.95 12.94c-4.29 0-7.77 3.91-7.77 8.75 0 4.83 3.48 8.74 7.77 8.74 4.29 0 7.77-3.91 7.77-8.74 0-4.84-3.48-8.75-7.77-8.75zm0 1.81c3.4 0 6.16 3.1 6.16 6.94 0 3.83-2.76 6.93-6.16 6.93-3.4 0-6.16-3.1-6.16-6.93 0-3.84 2.76-6.94 6.16-6.94z" opacity=".549" fill="#844b28"/><path id="path5702" fill-rule="evenodd" d="M421.18-468.49l-1.68 12.09 3.92-11.41 6.85 4.45-6.8 9.5 8.44-7.65 3.95 7.71-10.16 4.43 10.78-1.89v8.9l-10.75-1.88 10.13 4.41-3.95 7.71-8.45-7.67 6.81 9.52-6.85 4.45-3.92-11.37 1.68 12.04h-7.91l1.68-12.04-3.92 11.37-6.85-4.45 6.82-9.52-8.46 7.67-3.95-7.71 10.08-4.41-10.7 1.88v-8.9l10.82 1.91-10.2-4.45 3.95-7.71 8.44 7.65-6.8-9.5 6.85-4.45 3.92 11.41-1.68-12.09h7.91zm-3.95 12.93c-4.29 0-7.77 3.92-7.77 8.75s3.48 8.75 7.77 8.75c4.29 0 7.77-3.92 7.77-8.75s-3.48-8.75-7.77-8.75zm0 1.81c3.4 0 6.16 3.11 6.16 6.94 0 3.83-2.76 6.94-6.16 6.94-3.41 0-6.17-3.11-6.17-6.94 0-3.83 2.76-6.94 6.17-6.94z" opacity=".098" fill="#291102"/><path id="path5704" fill-rule="evenodd" d="M583.22-456.89l-1.68 12.09 3.92-11.41 6.85 4.45-6.8 9.5 8.44-7.65 3.95 7.71-10.16 4.43 10.78-1.88v8.9l-10.75-1.89 10.13 4.41-3.95 7.71-8.45-7.67 6.81 9.52-6.85 4.45-3.92-11.37 1.68 12.05h-7.9l1.67-12.05-3.92 11.37-6.85-4.45 6.82-9.52-8.46 7.67-3.95-7.71 10.08-4.41-10.7 1.89v-8.9l10.82 1.9-10.2-4.45 3.95-7.71 8.44 7.65-6.8-9.5 6.85-4.45 3.92 11.41-1.67-12.09h7.9zm-3.95 12.94c-4.29 0-7.77 3.91-7.77 8.75 0 4.83 3.48 8.74 7.77 8.74 4.29 0 7.77-3.91 7.77-8.74 0-4.84-3.48-8.75-7.77-8.75zm0 1.81c3.4 0 6.16 3.1 6.16 6.94 0 3.83-2.76 6.93-6.16 6.93-3.41 0-6.16-3.1-6.16-6.93 0-3.84 2.75-6.94 6.16-6.94z" opacity=".549" fill="#44200a"/><path id="path5706" fill-rule="evenodd" d="M529.97-461.4l-1.68 12.09 3.92-11.41 6.85 4.45-6.8 9.5 8.44-7.65 3.95 7.71-10.16 4.43 10.78-1.89v8.9l-10.75-1.88 10.13 4.41-3.95 7.71-8.45-7.67 6.81 9.52-6.85 4.45-3.92-11.37 1.68 12.05h-7.9l1.67-12.05-3.92 11.37-6.85-4.45 6.82-9.52-8.46 7.67-3.95-7.71 10.08-4.41-10.7 1.88v-8.9l10.82 1.91-10.2-4.45 3.95-7.71 8.44 7.65-6.8-9.5 6.85-4.45 3.92 11.41-1.67-12.09h7.9zm-3.95 12.94c-4.29 0-7.77 3.91-7.77 8.74s3.48 8.75 7.77 8.75c4.29 0 7.77-3.92 7.77-8.75s-3.48-8.74-7.77-8.74zm0 1.81c3.4 0 6.16 3.1 6.16 6.93 0 3.83-2.76 6.94-6.16 6.94-3.41 0-6.17-3.11-6.17-6.94 0-3.83 2.76-6.93 6.17-6.93z" opacity=".549" fill="#874d2a"/></g></g></g></g></g></svg>
