<svg xmlns="http://www.w3.org/2000/svg" viewBox="0 0 491.858 491.858"><path fill="white" d="M245.929.001C110.106.001 0 110.106 0 245.929s110.106 245.928 245.929 245.928c54.538 0 104.919-17.764 145.702-47.806a8.596 8.596 0 01-5.853-2.847l-40.28-45.014-21.693 33.293-17.911-90.492 92.117 28.655-39.651 17.035 40.28 45.016c1.869 2.086 2.503 4.825 2.012 7.378 55.635-45.087 91.206-113.957 91.206-191.147C491.858 110.106 381.752.001 245.929.001z"/><g fill="black"><path d="M91.849 263.346l2.255 12.53.25.084 2.757-12.614 18.21-57.806h12.53l18.211 57.806 2.924 13.7h.25l2.84-13.7 14.619-57.806h15.371l-26.23 90.385h-12.531l-17.876-55.718-3.926-16.123h-.25l-3.759 16.123-17.542 55.718H87.338l-26.23-90.385h15.454l15.287 57.806zM221.329 263.346l2.255 12.53.25.084 2.757-12.614 18.21-57.806h12.531l18.211 57.806 2.922 13.7h.252l2.84-13.7 14.619-57.806h15.369l-26.229 90.385h-12.531l-17.877-55.718-3.926-16.123h-.25l-3.76 16.123-17.542 55.718h-12.614l-26.23-90.385h15.454l15.289 57.806zM350.809 263.346l2.255 12.53.251.084 2.757-12.614 18.211-57.806h12.53l18.211 57.806 2.923 13.7h.251l2.84-13.7 14.619-57.806h15.37l-26.229 90.385h-12.53l-17.877-55.718-3.926-16.123h-.251l-3.759 16.123-17.543 55.718h-12.613l-26.23-90.385h15.454l15.286 57.806z"/></g></svg>
